<svg xmlns="http://www.w3.org/2000/svg" viewBox="0 0 500 500"><rect width="500" height="500" rx="44" fill="#FAFBFC"/><circle cx="415" cy="78" r="72" fill="#A7F3D0" opacity=".24"/><circle cx="80" cy="420" r="94" fill="#2DD4BF" opacity=".12"/><rect x="134" y="72" width="232" height="356" rx="40" fill="#0F766E"/>
<rect x="162" y="107" width="176" height="73" rx="14" fill="#2DD4BF"/>
<g fill="#A7F3D0"><rect x="161" y="214" width="43" height="43" rx="10"/><rect x="228" y="214" width="43" height="43" rx="10"/><rect x="295" y="214" width="43" height="43" rx="10"/>
<rect x="161" y="278" width="43" height="43" rx="10"/><rect x="228" y="278" width="43" height="43" rx="10"/><rect x="295" y="278" width="43" height="43" rx="10"/>
<rect x="161" y="342" width="43" height="43" rx="10"/><rect x="228" y="342" width="43" height="43" rx="10"/><rect x="295" y="342" width="43" height="43" rx="10"/></g></svg>